<?xml version="1.0" encoding="utf-8"?>
<!-- Generator: Adobe Illustrator 26.3.1, SVG Export Plug-In . SVG Version: 6.00 Build 0)  -->
<svg version="1.1" id="Layer_1" xmlns="http://www.w3.org/2000/svg" xmlns:xlink="http://www.w3.org/1999/xlink" x="0px" y="0px"
	 viewBox="0 0 657 776.1" style="enable-background:new 0 0 657 776.1;" xml:space="preserve">
<style type="text/css">
	.st0{fill:#020202;}
	.st1{fill:#F0F0F0;}
	.st2{fill:#3F3D56;}
	.st3{fill:#FFFFFF;}
	.st4{fill:#808080;}
	.st5{fill:#E4E4E4;}
	.st6{fill:#E6E6E6;}
	.st7{fill:#FEB8B8;}
	.st8{fill:#FF9760;}
	.st9{fill:#2F2E41;}
</style>
<rect x="0" class="st0" width="656.5" height="776.1"/>
<g>
	
		<image style="overflow:visible;" width="401" height="459" xlink:href="C985A366EA1E7EE0.png"  transform="matrix(1 0 0 1 -20 62.1)">
	</image>
</g>
<path class="st1" d="M645.5,760.7c-3.7,5-8.3,9.3-13.6,12.6c-1.1,0.7-2.3,1.4-3.4,2H601c0.3-0.7,0.6-1.3,1-2
	c17.5-36.9,9.5-80.9-19.8-109.3c16.6,5.1,32,15.2,42.1,29.4c4.9,6.9,8.4,14.7,10.2,23c1.7-16.5-1-33.2-7.7-48.4c13.5,11,24,26,28,43
	C658.8,727.8,655.8,746.7,645.5,760.7z"/>
<path id="b35682e1-9f03-403a-b8b0-c3d37d0d1380-171" class="st2" d="M656.7,776.1H398.9V774H657L656.7,776.1z"/>
<path class="st3" d="M308.7,263.3c0,38.6-13.5,71.6-39.2,96.2c-18.2,17.4-46.3,41.9-46.3,67.7v21.4h-85.5v-21.4
	c0-26.1-28.2-50.6-46.3-67.7c-25.1-23.7-39.2-58.9-39.2-96.2v-0.8c0.2-70.8,57.8-128.1,128.7-127.8
	C251.7,134.9,309,192.5,308.7,263.3z"/>
<path id="ecc2cf6c-8ee8-498c-972d-3c77e28b77e9-172" class="st3" d="M223.2,451.5c-1.7,0-3-1.3-3-3v-21.4
	c0-25.1,24.8-48.6,42.9-65.7c1.5-1.4,3-2.8,4.4-4.1c25-23.9,38.3-56.4,38.3-94c0-70.2-55-125.2-125.2-125.2h-0.4
	c-68.8,0.1-124.6,55.7-124.9,124.5v0.7c0,36.8,13.9,71.1,38.2,94c1.2,1.2,2.5,2.4,3.8,3.6c18.3,17.2,43.4,40.7,43.4,66.3v21.4
	c0,1.7-1.3,3-3,3s-3-1.3-3-3l0,0v-21.4c0-23-24-45.5-41.5-61.9c-1.3-1.2-2.6-2.4-3.8-3.6c-25.5-24.1-40.1-59.9-40.1-98.4v-0.7
	c0.2-72,58.9-130.5,130.9-130.5h0.4c72.1-0.4,130.9,57.8,131.2,129.9c0,0.5,0,0.9,0,1.4c0,39.3-13.9,73.3-40.1,98.4
	c-1.4,1.3-2.9,2.7-4.4,4.2c-17.3,16.4-41,38.8-41,61.3v21.4C226.2,450.2,224.9,451.5,223.2,451.5L223.2,451.5z"/>
<path id="b22bef41-3cd7-4c1e-881c-c9a642005cb0-173" class="st4" d="M209,490h-57c-2.8,0-5-2.2-5-5s2.2-5,5-5h57c2.8,0,5,2.2,5,5
	S211.8,490,209,490z"/>
<path class="st4" d="M186.6,523.5h-12.3c-4.3,0-8.4-1.2-12.1-3.4c-1.1-0.7-1.6-2-1.3-3.2c0.3-1.3,1.5-2.1,2.8-2.1h33.4
	c1.3,0,2.5,0.9,2.8,2.1c0.4,1.2-0.2,2.6-1.3,3.2C195.1,522.3,190.9,523.5,186.6,523.5z"/>
<path class="st4" d="M209,505.8h-57.3l-0.2-0.4c-0.3-1.4,0-2.9,0.9-4.1s2.3-1.9,3.8-1.8h48.6c1.5,0,2.9,0.7,3.8,1.8
	c0.9,1.1,1.2,2.6,0.9,4l-0.1,0.4L209,505.8z"/>
<path id="e0eb6627-54a4-4797-861b-0d156b8b485b-174" class="st5" d="M47.9,145.4c-1.2,0-2.4-0.4-3.3-1.2L1.7,106.7
	c-2.1-1.8-2.2-5-0.4-7.1c1.8-2,4.9-2.2,7-0.5l42.9,37.5c2.1,1.8,2.3,5,0.5,7.1C50.7,144.8,49.3,145.4,47.9,145.4L47.9,145.4z"/>
<path id="e13fc22b-cd18-4b6e-a2d4-df4b74c6b7e7-175" class="st5" d="M306,145.4c-2.8,0-5-2.2-5-5c0-1.4,0.6-2.8,1.7-3.8l42.9-37.5
	c2.1-1.8,5.3-1.5,7,0.5c1.8,2.1,1.6,5.2-0.5,7l-42.9,37.5C308.4,145,307.2,145.4,306,145.4z"/>
<path id="a74da646-4683-465e-97fe-dd817e7fc328-176" class="st4" d="M223.2,472.3h-85.5c-2.8,0-5-2.2-5-5s2.2-5,5-5h85.5
	c2.8,0,5,2.2,5,5S226,472.3,223.2,472.3z"/>
<path class="st6" d="M178.4,341.6l-17.8,106.9h-10.1l18-108.5c0.5-2.7,3-4.6,5.8-4.1S178.9,338.9,178.4,341.6z"/>
<path class="st6" d="M212.6,448.5h-10.1l-17.8-106.9c-0.5-2.7,1.4-5.3,4.1-5.8s5.3,1.4,5.8,4.1L212.6,448.5z"/>
<path id="be3a5c8a-fbb4-472c-819b-e8dd06032f6a-177" class="st6" d="M148,338.1c0-2.8,2.2-5,5-5h55c2.8,0,5,2.2,5,5s-2.2,5-5,5h-55
	C150.2,343.1,148,340.8,148,338.1z"/>
<path id="e9f776ed-f4b6-47dc-b212-c247d99ecb23-178" class="st5" d="M180.5,95.5c-2.8,0-5-2.2-5-5V5c0-2.8,2.2-5,5-5s5,2.2,5,5v85.5
	C185.5,93.3,183.3,95.5,180.5,95.5z"/>
<path id="eba1f826-879a-4c25-b118-6bb025be95d0-179" class="st7" d="M589.2,762.1H577l-5.8-47.3h18.1L589.2,762.1z"/>
<path id="f6694a1b-3521-46e6-aa9c-51f4297aac52-180" class="st8" d="M592.3,774h-39.5v-0.5c0-8.5,6.9-15.4,15.4-15.4h24.1V774z"/>
<path id="fae71c2d-33fb-45f7-8331-19b4de5eddc8-181" class="st7" d="M496.1,761.7l-11.8-3.2l6.6-47.2l17.5,4.7L496.1,761.7z"/>
<path id="b3b10fd6-5fa4-49f3-8270-96ad6a3a1e0e-182" class="st8" d="M496,774l-38.2-10.2l0.1-0.5c2.2-8.2,10.6-13.1,18.8-10.9l0,0
	l23.3,6.2L496,774z"/>
<path id="f6267da0-acb1-421a-9dac-5a6151c1f955-183" class="st4" d="M596.3,497.1l10.3,11.9l-13.3,242.4h-28.4L550.6,565
	l-44.3,191.6l-29.5-7.2L503.6,506L596.3,497.1z"/>
<path id="ea0dabd6-18d7-4484-8048-4cddc34702bd-184" class="st8" d="M510.4,340.6l28.2-14.2l43.4,0.8l37.4,19.1l-21.3,106.2
	l9.2,55.4l0,0c-35.5,9.1-72.7,9.4-108.3,0.9l-0.3-0.1c0,0,21.1-74.9,12.1-97.8L510.4,340.6z"/>
<path id="a75b604a-8411-40e9-b5d3-81fba8b6e00c-185" class="st7" d="M592.1,284c-0.1-17.7-14.4-31.9-32.1-31.9
	c-17.7,0.1-31.9,14.4-31.9,32.1s14.4,31.9,32.1,31.9c17.6-0.1,31.8-14.3,31.9-31.9V284z"/>
<path id="b97e8772-edf1-4d51-bb40-aaab108bf113-186" class="st7" d="M506.5,418.1c2.3,5.9,8.9,8.8,14.8,6.5c0.6-0.2,1.2-0.5,1.8-0.9
	l57.4,30.3l1.9-14l-55.7-32.9c-3.7-5.2-10.9-6.4-16.1-2.8C506.2,407.5,504.6,413.1,506.5,418.1L506.5,418.1z"/>
<path id="b7638692-4395-4c34-bc33-e4b41c888504-187" class="st7" d="M583,420.5c-3.5,5.3-10.7,6.7-15.9,3.1
	c-0.6-0.4-1.1-0.8-1.6-1.3l-62.6,17l0.5-17.7l62.3-16.2c4.7-4.3,12-3.9,16.3,0.8C585.5,410.2,586,416.1,583,420.5L583,420.5z"/>
<path id="fb7d8996-2760-43c1-a9a4-d402d6d3756c-188" class="st8" d="M607.3,347.1l12.2-0.8c0,0,14.3,18.9,6.4,39.3
	c0,0,1.4,73.5-30.3,70.5c-31.6-3-41.7-3-41.7-3l9.5-26.5l21.3-6.6c0,0-6.6-28.9,5.8-40.9L607.3,347.1z"/>
<path id="a9eb06d8-8cbf-43ab-991d-4f9eccd60edd-189" class="st8" d="M519.1,346.5l-1.7-8.8c0,0-25.4-0.6-30.5,38
	c0,0-22.9,57.7-0.5,65.1s47.1,0,47.1,0l-1.9-25.4l-24.7-5c0,0,12.7-16.5,5.8-30.8L519.1,346.5z"/>
<path id="ba7ab43e-494b-455d-a87f-0e0f24cb0a47-190" class="st9" d="M571.2,299.7c-2.4-0.9-5-0.9-7.4-1.3
	c-8.9-1.6-15.8-10.7-14.9-19.7c0.2-1.2,0.2-2.4,0.1-3.5c-0.6-2.6-3.5-3.9-6.1-4.3s-5.3,0.1-7.9-0.6c-3.9-1.1-6.9-4.6-7.9-8.6
	c-0.8-4-0.4-8.2,1.3-12l1.2,2.6c1.3-1.4,2.1-3,2.5-4.9c2.2,0.1,4.1,1.4,5.2,3.3c1.6,0.7,1.4-2.9,3-3.6c0.7-0.2,1.5-0.1,2.1,0.3
	c3.5,1.2,7.2-0.6,10.6-1.8c6-2.2,12.3-2.9,18.6-2.1c4.2,0.5,8.4,1.7,11.7,4.4c2.6,2.3,4.7,5.1,6.2,8.3c4,7.5,7,15.8,7,24.3
	c-0.1,7-2.2,13.8-6.2,19.5c-2.1,3-8.7,13.3-13.1,12.2C571.5,310.7,577.8,302.3,571.2,299.7z"/>
</svg>
